<?xml version="1.0" standalone="no"?>
<!DOCTYPE svg PUBLIC "-//W3C//DTD SVG 20010904//EN"
 "http://www.w3.org/TR/2001/REC-SVG-20010904/DTD/svg10.dtd">
<svg version="1.0" xmlns="http://www.w3.org/2000/svg"
 width="1080.000000pt" height="1080.000000pt" viewBox="0 0 1080.000000 1080.000000"
 preserveAspectRatio="xMidYMid meet">

<g transform="translate(0.000000,1080.000000) scale(0.100000,-0.100000)"
fill="#000000" stroke="none">
<path d="M2160 7560 l0 -1080 1080 0 1080 0 -2 -537 -3 -538 -537 -3 -538 -2
-2 -1875 c-1 -1031 -2 -1883 -2 -1892 -1 -17 32 -18 541 -21 l543 -2 2 812 3
813 1075 0 1075 0 3 -813 2 -812 540 0 c504 1 540 2 540 18 2 597 -1 3766 -4
3769 -2 2 -243 5 -537 6 l-534 2 -3 538 -2 537 1080 0 1080 0 0 1080 0 1080
-1080 0 -1080 0 0 -1080 0 -1080 -1080 0 -1080 0 0 1080 0 1080 -1080 0 -1080
0 0 -1080z"/>
</g>
</svg>
